<svg id="svg" version="1.1" xmlns="http://www.w3.org/2000/svg" xmlns:xlink="http://www.w3.org/1999/xlink" width="400" height="80.68181818181819" viewBox="0, 0, 400,80.68181818181819"><g id="svgg"><path id="path0" d="M178.833 7.493 C 172.984 7.626,173.113 7.543,172.256 11.705 C 171.076 17.437,171.164 18.109,173.148 18.508 C 175.407 18.962,175.752 19.070,176.115 19.433 C 176.872 20.190,176.637 20.856,174.995 22.620 C 173.764 23.942,173.560 24.466,173.953 25.300 C 174.097 25.605,178.494 30.065,183.812 35.300 C 189.091 40.498,194.628 45.955,196.116 47.427 C 199.456 50.732,199.967 51.648,199.186 52.930 C 198.539 53.991,198.096 54.078,193.000 54.135 C 185.630 54.219,184.491 53.922,182.825 51.483 C 181.700 49.835,181.375 49.826,176.942 51.320 C 172.323 52.877,171.882 53.206,172.042 54.970 C 172.358 58.457,175.844 63.767,178.746 65.183 L 179.910 65.750 192.413 65.750 C 206.522 65.750,205.723 65.816,208.596 64.421 C 212.511 62.522,214.255 58.592,213.953 52.352 C 213.748 48.106,214.344 48.860,199.878 34.548 C 187.631 22.433,186.667 21.401,186.667 20.407 C 186.667 18.900,187.841 18.614,193.667 18.701 C 199.121 18.782,199.423 18.864,202.309 21.037 C 203.352 21.822,205.186 21.798,208.869 20.951 C 213.066 19.985,213.306 19.562,212.181 15.113 C 211.065 10.696,208.956 8.301,205.545 7.578 C 204.358 7.327,188.418 7.276,178.833 7.493 M293.083 7.538 C 285.463 9.478,284.523 9.940,284.756 11.629 C 284.840 12.232,287.221 19.404,290.246 28.167 C 291.098 30.635,294.132 39.595,297.583 49.833 C 301.883 62.588,304.515 70.210,304.846 70.857 C 305.638 72.410,306.364 72.355,311.780 70.329 C 317.431 68.215,317.493 68.144,316.500 64.917 C 315.459 61.536,316.201 60.501,319.304 61.005 C 321.996 61.443,323.258 60.318,327.987 53.270 C 336.041 41.264,339.793 24.662,337.492 11.204 C 336.791 7.102,336.145 6.916,324.583 7.492 C 320.041 7.718,320.118 7.639,319.507 12.750 C 318.893 17.891,319.077 18.812,320.767 19.078 C 324.837 19.718,325.089 20.059,325.071 24.917 C 325.036 34.054,322.555 41.101,317.291 47.014 C 314.998 49.588,313.356 50.451,312.041 49.771 C 311.008 49.237,310.928 49.055,307.416 39.167 C 299.922 18.067,296.597 8.853,296.302 8.371 C 295.706 7.397,294.679 7.131,293.083 7.538 M78.620 7.669 C 77.822 7.807,77.033 8.224,75.706 9.207 C 74.683 9.965,74.065 9.923,73.095 9.029 C 71.774 7.811,71.515 7.786,67.833 8.509 C 63.071 9.444,62.244 9.752,61.731 10.783 C 61.315 11.621,61.232 59.697,61.644 61.301 C 61.962 62.541,62.990 64.007,64.042 64.720 C 65.786 65.903,64.589 65.845,86.263 65.795 L 105.750 65.750 106.714 65.361 C 108.544 64.622,109.610 63.541,110.085 61.943 C 110.465 60.664,110.457 17.728,110.076 14.999 C 109.515 10.977,108.378 8.765,106.417 7.883 C 105.687 7.555,80.406 7.361,78.620 7.669 M225.825 7.930 C 224.531 8.468,224.606 7.670,224.474 22.250 C 224.326 38.532,224.470 37.354,222.445 38.835 C 221.088 39.828,220.886 40.300,220.581 43.186 C 220.152 47.250,220.222 47.499,222.103 48.619 C 224.387 49.980,224.589 51.891,222.623 53.537 C 221.438 54.528,221.240 55.108,220.579 59.504 C 219.861 64.285,219.857 64.502,220.486 65.206 L 220.972 65.750 239.111 65.841 C 257.838 65.935,257.734 65.938,258.320 65.309 C 259.337 64.218,260.112 54.930,259.258 54.076 C 258.756 53.574,260.133 53.635,248.667 53.607 C 237.719 53.580,238.059 53.618,237.196 52.333 C 236.018 50.581,237.198 48.938,240.020 48.403 C 242.341 47.963,242.532 47.700,243.004 44.302 C 243.643 39.713,243.482 39.398,240.333 39.085 C 238.056 38.859,236.805 38.197,236.393 37.000 C 236.315 36.771,236.250 30.393,236.250 22.827 C 236.250 7.444,236.327 8.426,235.076 7.903 C 234.247 7.556,226.670 7.578,225.825 7.930 M10.718 8.156 C 9.675 8.632,9.457 9.221,8.768 13.417 C 7.933 18.499,7.962 18.723,9.557 19.524 C 12.107 20.804,11.902 19.399,12.000 36.261 L 12.083 50.605 12.718 51.817 C 13.730 53.748,13.447 54.235,11.016 54.747 C 8.460 55.284,8.417 55.379,8.417 60.417 C 8.417 66.425,7.066 65.833,20.774 65.833 C 34.088 65.833,36.074 65.638,39.988 63.942 C 46.844 60.971,53.484 52.179,55.157 43.858 C 55.756 40.883,55.794 39.527,55.707 24.583 C 55.613 8.545,55.631 8.826,54.661 8.256 C 53.778 7.737,11.846 7.642,10.718 8.156 M122.250 8.081 C 120.835 8.587,120.001 10.175,118.906 14.445 C 117.973 18.086,118.217 19.174,120.015 19.395 C 123.602 19.838,124.196 20.016,124.531 20.751 C 124.878 21.512,124.049 22.277,121.383 23.655 C 118.574 25.108,117.717 27.043,117.172 33.167 C 116.348 42.417,117.871 48.969,122.270 55.104 C 127.935 63.006,133.610 65.833,143.799 65.833 C 152.110 65.833,155.437 64.543,162.186 58.703 C 165.533 55.807,165.546 55.639,162.704 52.110 C 158.772 47.227,158.711 47.207,155.890 49.858 C 152.162 53.362,149.525 54.429,144.667 54.402 C 138.521 54.368,134.720 52.380,131.148 47.333 C 126.472 40.726,126.225 35.584,130.104 25.526 C 132.469 19.393,132.253 19.499,142.344 19.503 C 151.627 19.507,152.245 19.636,154.360 22.010 C 156.024 23.877,156.100 23.902,160.250 23.907 C 165.233 23.913,165.642 23.640,165.181 20.625 C 164.267 14.659,160.866 10.284,155.705 8.437 L 154.250 7.917 138.583 7.880 C 125.354 7.849,122.813 7.880,122.250 8.081 M275.000 8.024 C 274.587 8.109,273.082 8.354,271.653 8.568 C 268.866 8.986,268.026 9.274,267.551 9.973 C 267.050 10.712,267.003 63.984,267.503 64.802 C 268.086 65.754,268.514 65.833,273.094 65.833 C 277.742 65.833,278.092 65.761,278.594 64.704 C 278.977 63.898,279.209 9.740,278.834 8.835 C 278.444 7.894,277.057 7.601,275.000 8.024 M344.667 8.792 C 343.646 9.302,343.583 9.607,343.583 14.083 C 343.583 19.614,343.487 19.491,348.119 19.806 C 352.632 20.113,353.196 20.706,350.990 22.826 C 349.994 23.783,349.871 24.048,349.494 26.031 C 349.219 27.482,348.793 27.975,347.107 28.797 C 345.224 29.715,345.125 29.920,344.656 33.856 C 344.174 37.908,344.359 38.366,346.662 38.819 C 349.533 39.384,349.720 40.014,349.631 48.820 C 349.552 56.594,349.615 56.400,346.750 57.742 C 344.417 58.835,344.391 58.944,345.076 64.828 C 345.713 70.300,345.722 70.309,350.204 69.702 C 351.696 69.500,353.742 69.256,354.750 69.159 C 355.758 69.062,357.783 68.804,359.250 68.586 C 360.717 68.368,362.517 68.140,363.250 68.079 C 363.983 68.019,365.783 67.794,367.250 67.579 C 368.717 67.365,370.779 67.103,371.833 66.998 C 372.887 66.893,374.988 66.631,376.500 66.415 C 378.012 66.200,380.150 65.939,381.250 65.836 C 386.023 65.390,388.943 64.730,389.328 64.009 C 389.748 63.224,387.841 55.368,386.866 53.866 C 386.218 52.869,384.332 52.745,379.833 53.403 C 378.321 53.625,376.071 53.892,374.833 53.997 C 373.596 54.102,371.271 54.379,369.667 54.612 C 366.083 55.134,362.989 55.215,362.250 54.808 C 360.697 53.951,360.634 53.617,360.697 46.500 C 360.773 37.946,359.962 38.619,370.333 38.500 C 379.864 38.390,379.190 38.740,379.820 33.583 C 380.568 27.465,381.271 27.880,369.833 27.680 C 360.823 27.522,360.509 27.365,360.694 23.123 C 360.778 21.205,361.074 20.613,362.250 20.007 L 363.074 19.583 373.669 19.500 C 387.084 19.394,385.750 20.001,385.750 14.007 C 385.750 9.586,385.661 9.190,384.578 8.737 C 383.617 8.336,345.475 8.388,344.667 8.792 M96.546 19.177 C 97.506 19.443,98.288 20.226,98.582 21.213 C 98.897 22.276,98.964 50.540,98.654 51.985 C 98.436 53.004,98.019 53.560,97.109 54.046 L 96.417 54.417 85.750 54.417 L 75.083 54.417 74.333 54.000 C 73.779 53.692,73.474 53.365,73.167 52.750 L 72.750 51.917 72.750 36.750 C 72.750 19.149,72.652 20.000,74.773 19.244 C 75.590 18.953,95.517 18.891,96.546 19.177 M42.035 19.970 C 43.368 20.626,43.542 21.087,43.684 24.321 C 44.300 38.368,43.461 44.797,40.501 48.699 C 36.247 54.305,25.671 57.277,23.620 53.442 L 23.250 52.750 23.204 37.839 C 23.149 19.876,23.061 20.618,25.335 19.823 C 26.870 19.286,40.898 19.410,42.035 19.970 " stroke="none" fill="#d2d2d3" fill-rule="evenodd"></path><path id="path1" d="M0.000 40.333 L 0.000 80.667 200.000 80.667 L 400.000 80.667 400.000 40.333 L 400.000 0.000 200.000 0.000 L 0.000 0.000 0.000 40.333 M296.865 5.446 C 297.636 5.897,298.390 6.952,298.890 8.279 C 299.125 8.905,301.050 14.292,303.167 20.250 C 305.284 26.208,307.235 31.683,307.504 32.417 C 307.772 33.150,308.783 36.000,309.749 38.750 C 312.875 47.648,312.932 47.737,314.616 46.499 C 319.030 43.252,322.360 34.743,322.772 25.659 C 322.939 21.973,322.761 21.661,320.262 21.257 C 316.876 20.708,316.480 19.948,316.922 14.854 C 317.772 5.071,317.497 5.250,331.667 5.250 L 336.417 5.250 337.300 5.715 C 338.275 6.229,338.928 7.093,339.503 8.630 C 340.249 10.625,340.519 10.875,340.843 9.875 C 341.460 7.969,342.237 7.068,343.703 6.557 C 345.057 6.085,384.263 6.080,385.615 6.552 C 387.797 7.313,388.033 8.098,387.968 14.385 C 387.908 20.090,387.901 20.115,386.200 20.950 L 385.250 21.417 374.750 21.500 C 363.418 21.590,363.735 21.562,363.252 22.497 C 362.955 23.071,362.942 23.367,363.176 24.210 C 363.499 25.374,363.632 25.404,369.076 25.519 C 382.075 25.795,382.907 26.113,382.492 30.650 C 381.920 36.908,381.606 38.369,380.619 39.356 C 379.557 40.418,379.632 40.408,371.667 40.504 C 362.048 40.619,363.000 39.924,363.000 46.833 C 363.000 53.538,362.997 53.535,368.000 52.664 C 369.054 52.481,371.342 52.221,373.083 52.086 C 374.825 51.952,377.073 51.689,378.079 51.503 C 382.805 50.629,386.785 50.678,387.989 51.626 C 389.041 52.455,390.823 57.511,391.910 62.750 C 392.602 66.087,390.596 67.143,382.250 67.834 C 381.058 67.932,379.183 68.165,378.083 68.351 C 376.983 68.537,374.883 68.798,373.417 68.931 C 371.950 69.064,369.925 69.321,368.917 69.501 C 367.908 69.682,365.845 69.942,364.332 70.080 C 362.818 70.218,360.768 70.480,359.775 70.662 C 358.781 70.845,356.945 71.076,355.693 71.176 C 354.441 71.275,352.319 71.539,350.977 71.762 C 344.446 72.846,343.476 72.231,342.925 66.659 C 342.783 65.233,342.557 63.283,342.420 62.325 C 341.835 58.210,342.347 57.056,345.282 55.869 C 347.366 55.026,347.241 55.485,347.303 48.500 C 347.370 40.903,347.425 41.097,345.057 40.605 C 341.941 39.959,341.493 38.490,342.480 32.167 C 343.036 28.607,343.312 28.137,345.458 27.093 C 346.797 26.441,347.054 26.133,347.317 24.867 C 347.815 22.465,347.576 22.115,345.250 21.842 C 344.045 21.701,343.497 21.537,342.462 21.008 C 340.628 20.073,340.692 19.968,340.252 24.667 C 340.110 26.179,339.960 27.529,339.919 27.667 C 339.877 27.804,339.613 29.227,339.331 30.829 C 337.683 40.200,335.083 46.688,329.779 54.667 C 325.385 61.278,323.393 63.232,320.783 63.495 C 318.942 63.681,318.779 63.912,319.250 65.667 C 319.967 68.337,319.279 69.658,316.583 70.788 C 311.346 72.985,306.967 74.395,305.674 74.302 C 303.212 74.123,303.658 75.154,295.331 50.417 C 291.990 40.491,284.951 19.855,283.703 16.330 C 283.283 15.142,282.594 13.785,282.278 13.523 C 281.490 12.869,281.463 13.651,281.353 40.083 L 281.250 65.083 280.895 65.851 C 280.056 67.665,279.389 67.831,272.964 67.832 C 266.517 67.834,265.970 67.695,265.107 65.833 L 264.759 65.083 264.805 37.583 C 264.856 7.325,264.791 9.090,265.879 8.038 C 266.640 7.300,267.451 7.011,269.479 6.754 C 270.453 6.630,272.335 6.326,273.660 6.079 C 275.499 5.737,276.428 5.646,277.577 5.697 C 279.756 5.793,280.284 6.128,281.571 8.225 C 281.929 8.808,282.207 8.778,284.083 7.947 C 284.817 7.623,286.467 7.080,287.750 6.741 C 289.033 6.402,291.021 5.871,292.167 5.560 C 294.531 4.920,295.906 4.886,296.865 5.446 M205.599 5.414 C 210.717 6.394,213.182 9.156,214.746 15.667 C 215.913 20.526,215.218 21.674,210.449 22.763 C 203.928 24.253,202.388 24.223,200.480 22.570 C 198.717 21.042,198.252 20.917,194.362 20.917 C 190.680 20.917,190.414 20.985,190.619 21.883 C 190.665 22.085,196.085 27.613,202.664 34.167 C 217.228 48.677,216.404 47.510,216.383 53.583 C 216.356 61.564,212.782 66.388,206.000 67.599 C 204.358 67.892,180.673 67.936,179.300 67.648 C 175.481 66.849,172.038 62.803,169.933 56.644 C 168.496 52.437,169.104 51.738,176.345 49.272 C 182.253 47.261,183.030 47.342,184.877 50.162 C 186.043 51.942,187.432 52.282,192.917 52.127 C 197.721 51.992,197.728 52.009,189.401 43.927 C 178.465 33.312,171.703 26.513,171.344 25.773 C 170.779 24.606,170.835 24.330,172.102 21.978 C 172.455 21.323,172.248 21.048,170.939 20.436 C 168.404 19.250,168.373 19.060,169.657 12.680 C 171.096 5.529,170.901 5.689,178.379 5.501 C 181.017 5.435,183.223 5.332,183.282 5.274 C 183.529 5.027,204.256 5.157,205.599 5.414 M107.578 5.984 C 110.163 7.025,111.713 9.855,112.451 14.883 C 112.916 18.049,112.911 60.889,112.445 62.417 C 111.840 64.402,110.761 65.730,108.931 66.742 C 106.835 67.899,107.840 67.854,85.417 67.799 L 65.250 67.750 64.313 67.371 C 62.228 66.527,60.450 64.751,59.646 62.704 C 59.281 61.776,59.267 61.522,59.154 53.500 C 59.045 45.738,58.863 42.642,58.494 42.264 C 58.330 42.097,58.321 42.116,57.910 43.500 C 53.710 57.640,45.743 65.960,34.840 67.590 C 33.453 67.798,31.106 67.832,20.873 67.795 L 8.574 67.750 7.752 67.327 C 7.114 66.998,6.835 66.720,6.507 66.081 L 6.083 65.259 6.083 60.505 C 6.083 54.581,6.230 54.065,8.194 53.069 C 9.769 52.272,9.621 53.990,9.538 37.403 C 9.455 20.724,9.617 22.243,7.813 21.249 C 5.424 19.934,5.333 19.082,6.744 11.333 C 7.306 8.251,7.549 7.511,8.212 6.875 C 9.469 5.668,7.680 5.750,32.667 5.750 L 55.083 5.750 56.015 6.187 C 57.130 6.710,57.533 7.286,58.054 9.105 C 58.500 10.661,58.606 10.714,59.266 9.704 C 60.218 8.248,61.811 7.497,65.378 6.821 C 66.407 6.626,67.887 6.315,68.667 6.129 C 70.407 5.715,72.468 5.686,73.479 6.062 C 74.325 6.376,75.279 6.411,75.947 6.151 C 77.521 5.540,78.094 5.519,92.500 5.552 L 106.583 5.583 107.578 5.984 M236.186 5.816 C 238.721 6.604,238.583 5.676,238.583 21.941 C 238.583 35.538,238.590 35.805,238.915 36.165 C 239.427 36.730,239.708 36.830,241.786 37.180 C 245.574 37.817,246.230 38.778,245.591 42.750 C 245.458 43.575,245.268 44.925,245.169 45.750 C 244.855 48.371,244.390 49.238,242.564 50.611 L 242.083 50.973 242.583 51.175 C 243.383 51.498,247.097 51.593,253.478 51.453 C 262.798 51.248,262.823 51.279,261.657 61.376 C 260.891 68.008,260.457 68.392,254.129 68.031 C 251.830 67.900,245.275 67.830,235.489 67.831 C 218.995 67.834,219.218 67.846,218.296 66.879 C 217.439 65.981,217.322 65.038,217.741 62.417 C 217.873 61.592,218.103 59.942,218.252 58.750 C 218.716 55.048,219.110 53.695,220.051 52.564 C 221.036 51.379,220.951 50.822,219.685 50.176 C 218.391 49.516,217.715 48.191,217.905 46.686 C 217.959 46.263,218.079 44.904,218.172 43.667 C 218.490 39.435,218.812 38.530,220.434 37.306 C 222.087 36.058,222.117 35.706,222.151 17.383 C 222.175 4.938,221.769 5.470,231.167 5.578 C 233.820 5.608,235.824 5.703,236.186 5.816 M156.000 6.223 C 162.322 8.335,167.330 14.537,167.756 20.780 C 168.075 25.468,166.787 26.207,158.750 25.942 C 154.604 25.805,154.750 25.870,152.044 22.955 C 150.785 21.599,150.678 21.583,142.500 21.583 C 133.540 21.583,134.312 21.225,132.328 26.303 C 128.814 35.302,128.935 39.972,132.832 45.748 C 136.182 50.713,139.897 52.590,145.750 52.275 C 149.571 52.070,151.149 51.283,154.860 47.730 C 158.449 44.294,159.325 44.484,163.609 49.632 C 168.401 55.391,168.495 55.912,165.289 58.928 C 159.962 63.939,154.715 66.948,150.039 67.672 C 148.067 67.978,137.522 67.802,136.250 67.442 C 128.555 65.267,124.172 62.066,119.676 55.339 C 115.893 49.678,114.667 45.373,114.669 37.750 C 114.670 29.764,115.509 25.859,117.768 23.328 C 118.920 22.037,118.910 21.866,117.648 21.156 C 115.309 19.840,115.286 17.291,117.558 10.750 C 119.442 5.326,117.967 5.679,138.583 5.719 L 154.583 5.750 156.000 6.223 M76.000 21.378 C 74.966 21.900,75.000 21.369,75.001 36.583 C 75.002 51.247,75.012 51.449,75.793 51.960 C 76.498 52.422,95.023 52.404,95.707 51.940 C 96.517 51.391,96.519 51.331,96.466 36.295 L 96.417 22.174 95.955 21.712 L 95.493 21.250 85.955 21.209 C 78.539 21.176,76.324 21.214,76.000 21.378 M26.917 21.642 C 25.506 22.100,25.589 21.193,25.537 36.743 C 25.479 54.069,25.294 52.921,28.143 52.911 C 33.406 52.893,39.179 48.591,40.551 43.667 C 41.214 41.285,41.591 33.649,41.389 26.698 C 41.266 22.483,41.162 22.057,40.167 21.718 C 39.539 21.504,27.552 21.435,26.917 21.642 " stroke="none" fill="#0c141d" fill-rule="evenodd"></path><path id="path2" d="M292.167 5.560 C 291.021 5.871,289.033 6.402,287.750 6.741 C 286.467 7.080,284.817 7.623,284.083 7.947 C 282.207 8.778,281.929 8.808,281.571 8.225 C 280.284 6.128,279.756 5.793,277.577 5.697 C 276.428 5.646,275.499 5.737,273.660 6.079 C 272.335 6.326,270.453 6.630,269.479 6.754 C 267.451 7.011,266.640 7.300,265.879 8.038 C 264.791 9.090,264.856 7.325,264.805 37.583 L 264.759 65.083 265.107 65.833 C 265.970 67.695,266.517 67.834,272.964 67.832 C 279.389 67.831,280.056 67.665,280.895 65.851 L 281.250 65.083 281.353 40.083 C 281.463 13.651,281.490 12.869,282.278 13.523 C 282.594 13.785,283.283 15.142,283.703 16.330 C 284.951 19.855,291.990 40.491,295.331 50.417 C 303.658 75.154,303.212 74.123,305.674 74.302 C 306.967 74.395,311.346 72.985,316.583 70.788 C 319.279 69.658,319.967 68.337,319.250 65.667 C 318.779 63.912,318.942 63.681,320.783 63.495 C 323.393 63.232,325.385 61.278,329.779 54.667 C 335.083 46.688,337.683 40.200,339.331 30.829 C 339.613 29.227,339.877 27.804,339.919 27.667 C 339.960 27.529,340.110 26.179,340.252 24.667 C 340.692 19.968,340.628 20.073,342.462 21.008 C 343.497 21.537,344.045 21.701,345.250 21.842 C 347.576 22.115,347.815 22.465,347.317 24.867 C 347.054 26.133,346.797 26.441,345.458 27.093 C 343.312 28.137,343.036 28.607,342.480 32.167 C 341.493 38.490,341.941 39.959,345.057 40.605 C 347.425 41.097,347.370 40.903,347.303 48.500 C 347.241 55.485,347.366 55.026,345.282 55.869 C 342.347 57.056,341.835 58.210,342.420 62.325 C 342.557 63.283,342.783 65.233,342.925 66.659 C 343.476 72.231,344.446 72.846,350.977 71.762 C 352.319 71.539,354.441 71.275,355.693 71.176 C 356.945 71.076,358.781 70.845,359.775 70.662 C 360.768 70.480,362.818 70.218,364.332 70.080 C 365.845 69.942,367.908 69.682,368.917 69.501 C 369.925 69.321,371.950 69.064,373.417 68.931 C 374.883 68.798,376.983 68.537,378.083 68.351 C 379.183 68.165,381.058 67.932,382.250 67.834 C 390.596 67.143,392.602 66.087,391.910 62.750 C 390.823 57.511,389.041 52.455,387.989 51.626 C 386.785 50.678,382.805 50.629,378.079 51.503 C 377.073 51.689,374.825 51.952,373.083 52.086 C 371.342 52.221,369.054 52.481,368.000 52.664 C 362.997 53.535,363.000 53.538,363.000 46.833 C 363.000 39.924,362.048 40.619,371.667 40.504 C 382.073 40.379,381.560 40.846,382.492 30.650 C 382.907 26.113,382.075 25.795,369.076 25.519 C 363.632 25.404,363.499 25.374,363.176 24.210 C 362.942 23.367,362.955 23.071,363.252 22.497 C 363.735 21.562,363.418 21.590,374.750 21.500 L 385.250 21.417 386.200 20.950 C 387.901 20.115,387.908 20.090,387.968 14.385 C 388.033 8.098,387.797 7.313,385.615 6.552 C 384.263 6.080,345.057 6.085,343.703 6.557 C 342.237 7.068,341.460 7.969,340.843 9.875 C 340.519 10.875,340.249 10.625,339.503 8.630 C 338.928 7.093,338.275 6.229,337.300 5.715 L 336.417 5.250 331.667 5.250 C 317.497 5.250,317.772 5.071,316.922 14.854 C 316.480 19.948,316.876 20.708,320.262 21.257 C 322.761 21.661,322.939 21.973,322.772 25.659 C 322.360 34.743,319.030 43.252,314.616 46.499 C 312.932 47.737,312.875 47.648,309.749 38.750 C 308.783 36.000,307.772 33.150,307.504 32.417 C 307.235 31.683,305.284 26.208,303.167 20.250 C 298.407 6.853,298.572 7.286,297.937 6.454 C 296.751 4.899,295.387 4.688,292.167 5.560 M183.282 5.274 C 183.223 5.332,181.017 5.435,178.379 5.501 C 170.901 5.689,171.096 5.529,169.657 12.680 C 168.373 19.060,168.404 19.250,170.939 20.436 C 172.248 21.048,172.455 21.323,172.102 21.978 C 170.835 24.330,170.779 24.606,171.344 25.773 C 171.703 26.513,178.465 33.312,189.401 43.927 C 197.728 52.009,197.721 51.992,192.917 52.127 C 187.432 52.282,186.043 51.942,184.877 50.162 C 183.030 47.342,182.253 47.261,176.345 49.272 C 169.104 51.738,168.496 52.437,169.933 56.644 C 172.038 62.803,175.481 66.849,179.300 67.648 C 180.673 67.936,204.358 67.892,206.000 67.599 C 212.782 66.388,216.356 61.564,216.383 53.583 C 216.404 47.510,217.228 48.677,202.664 34.167 C 196.085 27.613,190.665 22.085,190.619 21.883 C 190.414 20.985,190.680 20.917,194.362 20.917 C 198.252 20.917,198.717 21.042,200.480 22.570 C 202.388 24.223,203.928 24.253,210.449 22.763 C 215.218 21.674,215.913 20.526,214.746 15.667 C 213.182 9.156,210.717 6.394,205.599 5.414 C 204.256 5.157,183.529 5.027,183.282 5.274 M77.417 5.745 C 76.867 5.868,76.206 6.051,75.947 6.151 C 75.279 6.411,74.325 6.376,73.479 6.062 C 72.468 5.686,70.407 5.715,68.667 6.129 C 67.887 6.315,66.407 6.626,65.378 6.821 C 61.811 7.497,60.218 8.248,59.266 9.704 C 58.606 10.714,58.500 10.661,58.054 9.105 C 57.533 7.286,57.130 6.710,56.015 6.187 L 55.083 5.750 32.667 5.750 C 7.680 5.750,9.469 5.668,8.212 6.875 C 7.549 7.511,7.306 8.251,6.744 11.333 C 5.333 19.082,5.424 19.934,7.813 21.249 C 9.617 22.243,9.455 20.724,9.538 37.403 C 9.621 53.990,9.769 52.272,8.194 53.069 C 6.230 54.065,6.083 54.581,6.083 60.505 L 6.083 65.259 6.507 66.081 C 6.835 66.720,7.114 66.998,7.752 67.327 L 8.574 67.750 20.873 67.795 C 31.106 67.832,33.453 67.798,34.840 67.590 C 45.743 65.960,53.710 57.640,57.910 43.500 C 58.321 42.116,58.330 42.097,58.494 42.264 C 58.863 42.642,59.045 45.738,59.154 53.500 C 59.267 61.522,59.281 61.776,59.646 62.704 C 60.450 64.751,62.228 66.527,64.313 67.371 L 65.250 67.750 85.417 67.799 C 107.840 67.854,106.835 67.899,108.931 66.742 C 110.761 65.730,111.840 64.402,112.445 62.417 C 112.911 60.889,112.916 18.049,112.451 14.883 C 111.713 9.855,110.163 7.025,107.578 5.984 L 106.583 5.583 92.500 5.552 C 81.212 5.526,78.218 5.565,77.417 5.745 M225.750 5.655 C 222.268 6.103,222.172 6.415,222.151 17.383 C 222.117 35.706,222.087 36.058,220.434 37.306 C 218.812 38.530,218.490 39.435,218.172 43.667 C 218.079 44.904,217.959 46.263,217.905 46.686 C 217.715 48.191,218.391 49.516,219.685 50.176 C 220.951 50.822,221.036 51.379,220.051 52.564 C 219.110 53.695,218.716 55.048,218.252 58.750 C 218.103 59.942,217.873 61.592,217.741 62.417 C 217.322 65.038,217.439 65.981,218.296 66.879 C 219.218 67.846,218.995 67.834,235.489 67.831 C 245.275 67.830,251.830 67.900,254.129 68.031 C 260.457 68.392,260.891 68.008,261.657 61.376 C 262.823 51.279,262.798 51.248,253.478 51.453 C 247.097 51.593,243.383 51.498,242.583 51.175 L 242.083 50.973 242.564 50.611 C 244.390 49.238,244.855 48.371,245.169 45.750 C 245.268 44.925,245.458 43.575,245.591 42.750 C 246.230 38.778,245.574 37.817,241.786 37.180 C 239.708 36.830,239.427 36.730,238.915 36.165 C 238.590 35.805,238.583 35.538,238.583 21.941 C 238.583 5.676,238.721 6.604,236.186 5.816 C 235.467 5.592,227.227 5.466,225.750 5.655 M121.665 5.889 C 119.247 6.419,118.294 7.864,116.754 13.333 C 115.344 18.346,115.529 19.964,117.648 21.156 C 118.910 21.866,118.920 22.037,117.768 23.328 C 113.939 27.620,113.400 42.171,116.778 50.065 C 120.231 58.135,126.525 64.313,133.667 66.643 C 137.078 67.756,136.781 67.719,143.039 67.792 C 152.650 67.904,155.520 66.963,162.366 61.457 C 168.833 56.256,168.866 55.950,163.609 49.632 C 159.325 44.484,158.449 44.294,154.860 47.730 C 151.149 51.283,149.571 52.070,145.750 52.275 C 139.897 52.590,136.182 50.713,132.832 45.748 C 128.935 39.972,128.814 35.302,132.328 26.303 C 134.312 21.225,133.540 21.583,142.500 21.583 C 150.678 21.583,150.785 21.599,152.044 22.955 C 154.750 25.870,154.604 25.805,158.750 25.942 C 166.787 26.207,168.075 25.468,167.756 20.780 C 167.330 14.537,162.322 8.335,156.000 6.223 L 154.583 5.750 138.583 5.719 C 126.607 5.696,122.352 5.739,121.665 5.889 M205.051 6.352 C 209.881 7.099,212.485 10.083,213.749 16.322 C 214.557 20.307,214.059 20.930,209.192 22.014 C 204.112 23.146,202.766 23.100,201.170 21.737 C 199.435 20.257,198.158 19.868,194.583 19.732 C 189.902 19.553,188.245 20.016,188.697 21.374 C 188.875 21.907,193.393 26.497,205.228 38.170 C 215.344 48.147,215.231 47.975,215.221 53.417 C 215.208 60.887,212.567 64.818,206.408 66.532 C 204.853 66.965,182.771 67.223,180.285 66.837 C 176.442 66.241,173.097 62.518,171.087 56.600 C 169.850 52.958,170.367 52.372,176.701 50.220 C 181.812 48.483,182.423 48.521,183.799 50.656 C 185.229 52.874,186.867 53.291,193.563 53.139 C 199.168 53.011,199.297 52.108,194.387 47.343 C 184.389 37.642,172.997 26.336,172.657 25.778 C 172.003 24.706,172.213 23.864,173.527 22.284 C 174.779 20.781,174.588 20.235,172.643 19.747 C 170.015 19.087,169.780 18.584,170.392 14.917 C 171.374 9.023,171.798 7.730,172.974 7.041 L 173.738 6.593 178.636 6.474 C 181.330 6.408,183.577 6.312,183.628 6.261 C 183.813 6.076,203.815 6.161,205.051 6.352 M296.285 6.494 C 297.069 6.972,297.564 7.832,298.399 10.167 C 299.022 11.909,303.182 23.573,304.563 27.453 C 304.785 28.075,306.204 32.071,307.717 36.333 C 311.938 48.220,311.728 47.705,312.575 48.260 C 313.516 48.876,314.893 48.060,316.849 45.727 C 321.285 40.436,323.332 34.756,323.838 26.342 C 324.135 21.389,323.808 20.722,320.882 20.320 C 317.831 19.902,317.509 18.970,318.233 12.667 C 318.977 6.190,318.426 6.488,330.175 6.227 C 337.163 6.071,337.688 6.290,338.499 9.707 C 340.692 18.939,338.680 34.538,333.925 45.177 C 331.388 50.853,325.131 60.076,322.584 61.893 C 322.161 62.195,321.777 62.263,320.100 62.333 C 318.180 62.414,318.107 62.431,317.780 62.869 L 317.443 63.322 317.832 64.786 C 318.898 68.804,318.760 68.962,311.956 71.493 C 304.945 74.101,304.500 74.002,302.962 69.485 C 302.544 68.256,300.911 63.462,299.334 58.833 C 297.757 54.204,295.161 46.554,293.565 41.833 C 291.969 37.112,289.920 31.075,289.012 28.417 C 282.673 9.859,282.903 10.658,283.613 9.702 C 284.260 8.831,286.473 8.038,292.583 6.487 C 294.197 6.078,295.606 6.080,296.285 6.494 M107.429 7.088 C 109.751 8.274,111.003 11.175,111.490 16.500 C 111.717 18.974,111.722 59.408,111.497 61.148 C 111.143 63.871,109.664 65.584,106.833 66.547 L 105.750 66.916 86.833 66.966 C 74.214 66.999,67.475 66.958,66.589 66.840 C 63.307 66.405,60.921 64.173,60.332 60.986 C 60.220 60.382,60.177 51.595,60.206 35.326 L 60.250 10.583 60.621 9.987 C 61.299 8.896,62.490 8.434,67.083 7.478 C 70.802 6.705,71.975 6.675,73.333 7.319 C 74.641 7.939,74.680 7.941,75.833 7.402 C 77.788 6.490,77.316 6.514,92.429 6.550 L 106.441 6.583 107.429 7.088 M236.048 6.953 C 237.622 7.677,237.584 7.392,237.580 18.333 C 237.578 23.512,237.540 29.625,237.496 31.917 C 237.390 37.466,237.436 37.546,241.083 38.077 C 244.814 38.621,245.004 38.998,244.253 44.376 C 243.656 48.654,243.350 49.063,240.286 49.669 C 238.172 50.087,237.743 51.830,239.634 52.317 C 240.787 52.615,249.530 52.721,254.294 52.496 L 258.801 52.282 259.609 52.683 C 261.128 53.436,261.245 54.244,260.668 59.962 C 260.264 63.961,259.949 65.503,259.406 66.149 C 258.574 67.138,259.450 67.101,239.167 67.005 L 220.583 66.917 219.878 66.540 C 218.473 65.789,218.435 65.376,219.253 59.750 C 219.998 54.627,220.105 54.266,221.247 53.032 C 222.787 51.369,222.787 50.702,221.249 49.718 C 219.056 48.316,218.885 47.911,219.164 44.771 C 219.607 39.763,219.771 39.273,221.417 38.005 C 223.257 36.588,223.280 36.328,223.318 16.817 C 223.337 7.157,223.353 7.097,226.000 6.608 C 227.508 6.330,235.274 6.597,236.048 6.953 M55.472 7.136 C 56.979 7.940,56.888 6.949,57.017 24.000 C 57.135 39.634,57.101 40.743,56.399 44.145 C 54.367 53.982,46.177 63.617,37.917 65.889 C 34.156 66.923,32.276 67.033,19.500 66.968 C 6.072 66.901,7.280 67.511,7.196 60.750 C 7.126 55.076,7.279 54.590,9.372 53.831 C 11.035 53.227,11.291 52.894,11.000 51.711 C 10.809 50.935,10.746 48.004,10.674 36.500 C 10.569 20.039,10.750 21.580,8.802 20.550 C 6.637 19.405,6.557 18.909,7.576 12.917 C 8.245 8.987,8.461 8.259,9.162 7.588 C 10.133 6.657,9.432 6.683,33.000 6.718 L 54.750 6.750 55.472 7.136 M155.250 7.050 C 161.635 8.915,166.448 15.219,166.559 21.861 C 166.607 24.689,166.150 24.917,160.417 24.917 C 155.167 24.917,155.123 24.904,153.564 22.982 C 151.683 20.663,151.003 20.513,142.347 20.505 C 133.226 20.497,133.469 20.385,131.439 25.532 C 127.657 35.118,127.751 40.096,131.831 46.163 C 135.363 51.417,138.681 53.235,144.750 53.244 C 149.498 53.251,151.570 52.370,155.324 48.751 C 158.572 45.620,158.954 45.704,162.862 50.407 C 167.154 55.572,167.175 55.869,163.486 59.142 C 158.610 63.467,154.760 65.636,150.083 66.691 C 148.703 67.003,139.233 67.008,137.596 66.698 C 130.550 65.366,125.121 61.554,120.574 54.746 C 116.819 49.125,115.740 44.974,115.876 36.677 C 116.021 27.859,116.830 25.181,120.003 23.007 C 122.224 21.486,122.177 21.098,119.714 20.581 C 116.682 19.944,116.370 18.659,117.926 13.212 C 119.225 8.667,120.179 7.250,122.221 6.838 C 123.734 6.533,154.148 6.728,155.250 7.050 M278.909 6.996 C 280.386 7.711,280.253 4.790,280.229 35.864 C 280.207 64.556,280.202 64.814,279.612 65.700 C 278.843 66.855,278.506 66.917,273.000 66.917 C 266.985 66.917,266.461 66.753,265.993 64.737 C 265.758 63.726,265.787 11.400,266.023 10.300 C 266.398 8.545,267.265 8.039,270.670 7.587 C 271.722 7.448,273.296 7.190,274.167 7.014 C 276.329 6.578,278.031 6.571,278.909 6.996 M385.053 7.575 C 386.811 8.202,386.917 8.560,386.917 13.917 C 386.917 21.055,388.186 20.390,374.333 20.502 C 366.871 20.562,363.623 20.644,363.319 20.779 C 361.935 21.396,361.407 23.703,362.269 25.370 C 362.775 26.349,363.070 26.399,369.000 26.527 C 382.199 26.811,381.835 26.627,381.171 32.669 C 380.388 39.793,380.781 39.489,372.333 39.501 C 361.093 39.516,361.917 38.937,361.917 46.826 C 361.917 54.675,361.863 54.622,368.719 53.597 C 370.203 53.375,372.504 53.108,373.833 53.005 C 375.162 52.901,377.450 52.625,378.917 52.392 C 384.717 51.468,387.118 51.747,388.038 53.454 C 388.744 54.763,390.833 62.423,390.833 63.701 C 390.833 65.456,388.640 66.280,382.500 66.830 C 381.354 66.932,379.179 67.198,377.667 67.419 C 376.154 67.641,374.017 67.903,372.917 68.003 C 371.817 68.102,369.754 68.364,368.333 68.584 C 366.912 68.804,364.813 69.067,363.667 69.169 C 362.521 69.270,360.458 69.532,359.083 69.751 C 357.708 69.969,355.646 70.229,354.500 70.328 C 353.354 70.426,351.479 70.662,350.333 70.851 C 345.698 71.616,344.567 71.075,344.166 67.904 C 342.930 58.120,342.944 58.025,345.833 56.833 C 348.401 55.774,348.333 56.013,348.333 48.072 C 348.333 40.060,348.431 40.378,345.771 39.761 C 342.968 39.111,342.777 38.537,343.496 32.917 C 343.959 29.301,344.117 29.001,346.093 27.980 C 347.828 27.083,348.067 26.770,348.418 24.938 C 348.551 24.241,348.774 23.399,348.913 23.065 C 349.583 21.462,349.139 21.101,346.172 20.841 C 342.357 20.506,342.095 20.031,342.197 13.635 C 342.277 8.625,342.474 8.066,344.353 7.525 C 345.317 7.248,384.270 7.296,385.053 7.575 M76.583 20.181 C 73.737 20.458,73.917 19.342,73.917 36.745 C 73.917 52.918,73.854 52.029,75.054 52.906 C 75.800 53.452,95.713 53.446,96.446 52.899 C 97.663 51.992,97.583 53.119,97.583 36.750 C 97.583 20.102,97.665 21.105,96.262 20.492 C 95.561 20.185,79.194 19.927,76.583 20.181 M26.644 20.670 C 24.360 21.056,24.500 19.968,24.500 37.286 C 24.501 55.379,24.190 53.927,28.055 53.905 C 33.714 53.874,39.651 49.692,41.420 44.491 C 42.289 41.935,42.780 33.703,42.523 26.000 C 42.369 21.398,42.192 21.011,40.082 20.666 C 38.915 20.474,27.780 20.478,26.644 20.670 M95.955 21.712 L 96.417 22.174 96.466 36.295 C 96.500 45.856,96.459 50.613,96.340 51.023 C 95.969 52.302,96.421 52.250,85.743 52.250 C 75.072 52.250,75.525 52.302,75.176 51.043 C 74.836 49.818,74.944 22.863,75.292 22.169 C 75.811 21.135,75.495 21.163,85.955 21.209 L 95.493 21.250 95.955 21.712 M40.167 21.718 C 41.162 22.057,41.266 22.483,41.389 26.698 C 41.591 33.649,41.214 41.285,40.551 43.667 C 39.179 48.591,33.406 52.893,28.143 52.911 C 25.294 52.921,25.479 54.069,25.537 36.743 C 25.589 21.193,25.506 22.100,26.917 21.642 C 27.552 21.435,39.539 21.504,40.167 21.718 " stroke="none" fill="#565862" fill-rule="evenodd"></path><path id="path3" d="M183.628 6.261 C 183.577 6.312,181.330 6.408,178.636 6.474 L 173.738 6.593 172.974 7.041 C 171.798 7.730,171.374 9.023,170.392 14.917 C 169.780 18.584,170.015 19.087,172.643 19.747 C 174.588 20.235,174.779 20.781,173.527 22.284 C 172.213 23.864,172.003 24.706,172.657 25.778 C 172.997 26.336,184.389 37.642,194.387 47.343 C 199.297 52.108,199.168 53.011,193.563 53.139 C 186.867 53.291,185.229 52.874,183.799 50.656 C 182.423 48.521,181.812 48.483,176.701 50.220 C 170.367 52.372,169.850 52.958,171.087 56.600 C 173.097 62.518,176.442 66.241,180.285 66.837 C 182.771 67.223,204.853 66.965,206.408 66.532 C 212.567 64.818,215.208 60.887,215.221 53.417 C 215.231 47.975,215.344 48.147,205.228 38.170 C 193.393 26.497,188.875 21.907,188.697 21.374 C 188.245 20.016,189.902 19.553,194.583 19.732 C 198.158 19.868,199.435 20.257,201.170 21.737 C 202.766 23.100,204.112 23.146,209.192 22.014 C 214.059 20.930,214.557 20.307,213.749 16.322 C 212.485 10.083,209.881 7.099,205.051 6.352 C 203.815 6.161,183.813 6.076,183.628 6.261 M292.583 6.487 C 286.473 8.038,284.260 8.831,283.613 9.702 C 282.903 10.658,282.673 9.859,289.012 28.417 C 289.920 31.075,291.969 37.112,293.565 41.833 C 295.161 46.554,297.757 54.204,299.334 58.833 C 300.911 63.462,302.544 68.256,302.962 69.485 C 304.500 74.002,304.945 74.101,311.956 71.493 C 318.760 68.962,318.898 68.804,317.832 64.786 L 317.443 63.322 317.780 62.869 C 318.107 62.431,318.180 62.414,320.100 62.333 C 321.777 62.263,322.161 62.195,322.584 61.893 C 325.131 60.076,331.388 50.853,333.925 45.177 C 338.680 34.538,340.692 18.939,338.499 9.707 C 337.688 6.290,337.163 6.071,330.175 6.227 C 318.426 6.488,318.977 6.190,318.233 12.667 C 317.509 18.970,317.831 19.902,320.882 20.320 C 323.808 20.722,324.135 21.389,323.838 26.342 C 323.332 34.756,321.285 40.436,316.849 45.727 C 314.893 48.060,313.516 48.876,312.575 48.260 C 311.728 47.705,311.938 48.220,307.717 36.333 C 306.204 32.071,304.785 28.075,304.563 27.453 C 303.182 23.573,299.022 11.909,298.399 10.167 C 296.978 6.194,296.050 5.607,292.583 6.487 M77.583 6.745 C 77.125 6.871,76.337 7.167,75.833 7.402 C 74.680 7.941,74.641 7.939,73.333 7.319 C 71.975 6.675,70.802 6.705,67.083 7.478 C 62.490 8.434,61.299 8.896,60.621 9.987 L 60.250 10.583 60.206 35.326 C 60.177 51.595,60.220 60.382,60.332 60.986 C 60.921 64.173,63.307 66.405,66.589 66.840 C 67.475 66.958,74.214 66.999,86.833 66.966 L 105.750 66.916 106.833 66.547 C 109.664 65.584,111.143 63.871,111.497 61.148 C 111.722 59.408,111.717 18.974,111.490 16.500 C 111.003 11.175,109.751 8.274,107.429 7.088 L 106.441 6.583 92.429 6.550 C 80.985 6.523,78.264 6.558,77.583 6.745 M226.000 6.608 C 223.353 7.097,223.337 7.157,223.318 16.817 C 223.280 36.328,223.257 36.588,221.417 38.005 C 219.771 39.273,219.607 39.763,219.164 44.771 C 218.885 47.911,219.056 48.316,221.249 49.718 C 222.787 50.702,222.787 51.369,221.247 53.032 C 220.105 54.266,219.998 54.627,219.253 59.750 C 218.435 65.376,218.473 65.789,219.878 66.540 L 220.583 66.917 239.167 67.005 C 259.450 67.101,258.574 67.138,259.406 66.149 C 259.949 65.503,260.264 63.961,260.668 59.962 C 261.245 54.244,261.128 53.436,259.609 52.683 L 258.801 52.282 254.294 52.496 C 249.530 52.721,240.787 52.615,239.634 52.317 C 237.743 51.830,238.172 50.087,240.286 49.669 C 243.350 49.063,243.656 48.654,244.253 44.376 C 245.004 38.998,244.814 38.621,241.083 38.077 C 237.436 37.546,237.390 37.466,237.496 31.917 C 237.540 29.625,237.578 23.512,237.580 18.333 C 237.585 5.611,238.153 6.603,230.833 6.559 C 228.404 6.544,226.229 6.566,226.000 6.608 M10.451 6.902 C 8.721 7.371,8.408 8.026,7.576 12.917 C 6.557 18.909,6.637 19.405,8.802 20.550 C 10.750 21.580,10.569 20.039,10.674 36.500 C 10.746 48.004,10.809 50.935,11.000 51.711 C 11.291 52.894,11.035 53.227,9.372 53.831 C 7.279 54.590,7.126 55.076,7.196 60.750 C 7.280 67.511,6.072 66.901,19.500 66.968 C 32.276 67.033,34.156 66.923,37.917 65.889 C 46.177 63.617,54.367 53.982,56.399 44.145 C 57.101 40.743,57.135 39.634,57.017 24.000 C 56.888 6.949,56.979 7.940,55.472 7.136 L 54.750 6.750 33.000 6.718 C 15.589 6.692,11.091 6.729,10.451 6.902 M122.221 6.838 C 120.179 7.250,119.225 8.667,117.926 13.212 C 116.370 18.659,116.682 19.944,119.714 20.581 C 122.177 21.098,122.224 21.486,120.003 23.007 C 116.830 25.181,116.021 27.859,115.876 36.677 C 115.740 44.974,116.819 49.125,120.574 54.746 C 125.121 61.554,130.550 65.366,137.596 66.698 C 139.233 67.008,148.703 67.003,150.083 66.691 C 154.760 65.636,158.610 63.467,163.486 59.142 C 167.175 55.869,167.154 55.572,162.862 50.407 C 158.954 45.704,158.572 45.620,155.324 48.751 C 151.570 52.370,149.498 53.251,144.750 53.244 C 138.681 53.235,135.363 51.417,131.831 46.163 C 127.751 40.096,127.657 35.118,131.439 25.532 C 133.469 20.385,133.226 20.497,142.347 20.505 C 151.003 20.513,151.683 20.663,153.564 22.982 C 155.123 24.904,155.167 24.917,160.417 24.917 C 166.150 24.917,166.607 24.689,166.559 21.861 C 166.448 15.219,161.635 8.915,155.250 7.050 C 154.148 6.728,123.734 6.533,122.221 6.838 M274.167 7.014 C 273.296 7.190,271.722 7.448,270.670 7.587 C 267.265 8.039,266.398 8.545,266.023 10.300 C 265.787 11.400,265.758 63.726,265.993 64.737 C 266.461 66.753,266.985 66.917,273.000 66.917 C 279.210 66.917,279.785 66.699,280.093 64.230 C 280.421 61.603,280.258 8.430,279.920 7.871 C 279.183 6.652,277.331 6.376,274.167 7.014 M205.545 7.578 C 208.956 8.301,211.065 10.696,212.181 15.113 C 213.306 19.562,213.066 19.985,208.869 20.951 C 205.186 21.798,203.352 21.822,202.309 21.037 C 199.423 18.864,199.121 18.782,193.667 18.701 C 187.841 18.614,186.667 18.900,186.667 20.407 C 186.667 21.401,187.631 22.433,199.878 34.548 C 214.344 48.860,213.748 48.106,213.953 52.352 C 214.255 58.592,212.511 62.522,208.596 64.421 C 205.723 65.816,206.522 65.750,192.413 65.750 L 179.910 65.750 178.746 65.183 C 175.844 63.767,172.358 58.457,172.042 54.970 C 171.882 53.206,172.323 52.877,176.942 51.320 C 181.375 49.826,181.700 49.835,182.825 51.483 C 184.491 53.922,185.630 54.219,193.000 54.135 C 198.096 54.078,198.539 53.991,199.186 52.930 C 199.967 51.648,199.456 50.732,196.116 47.427 C 194.628 45.955,189.091 40.498,183.812 35.300 C 178.494 30.065,174.097 25.605,173.953 25.300 C 173.560 24.466,173.764 23.942,174.995 22.620 C 176.637 20.856,176.872 20.190,176.115 19.433 C 175.752 19.070,175.407 18.962,173.148 18.508 C 171.164 18.109,171.076 17.437,172.256 11.705 C 173.113 7.543,172.984 7.626,178.833 7.493 C 188.418 7.276,204.358 7.327,205.545 7.578 M295.492 7.579 C 296.367 8.031,296.218 7.638,307.416 39.167 C 310.928 49.055,311.008 49.237,312.041 49.771 C 313.356 50.451,314.998 49.588,317.291 47.014 C 322.555 41.101,325.036 34.054,325.071 24.917 C 325.089 20.059,324.837 19.718,320.767 19.078 C 319.077 18.812,318.893 17.891,319.507 12.750 C 320.118 7.639,320.041 7.718,324.583 7.492 C 336.145 6.916,336.791 7.102,337.492 11.204 C 339.793 24.662,336.041 41.264,327.987 53.270 C 323.258 60.318,321.996 61.443,319.304 61.005 C 316.201 60.501,315.459 61.536,316.500 64.917 C 317.493 68.144,317.431 68.215,311.780 70.329 C 306.364 72.355,305.638 72.410,304.846 70.857 C 304.515 70.210,301.883 62.588,297.583 49.833 C 294.132 39.595,291.098 30.635,290.246 28.167 C 287.221 19.404,284.840 12.232,284.756 11.629 C 284.523 9.940,285.463 9.478,293.083 7.538 C 294.069 7.286,294.956 7.302,295.492 7.579 M344.353 7.525 C 342.474 8.066,342.277 8.625,342.197 13.635 C 342.095 20.031,342.357 20.506,346.172 20.841 C 349.139 21.101,349.583 21.462,348.913 23.065 C 348.774 23.399,348.551 24.241,348.418 24.938 C 348.067 26.770,347.828 27.083,346.093 27.980 C 344.117 29.001,343.959 29.301,343.496 32.917 C 342.777 38.537,342.968 39.111,345.771 39.761 C 348.431 40.378,348.333 40.060,348.333 48.072 C 348.333 56.013,348.401 55.774,345.833 56.833 C 342.944 58.025,342.930 58.120,344.166 67.904 C 344.567 71.075,345.698 71.616,350.333 70.851 C 351.479 70.662,353.354 70.426,354.500 70.328 C 355.646 70.229,357.708 69.969,359.083 69.751 C 360.458 69.532,362.521 69.270,363.667 69.169 C 364.813 69.067,366.912 68.804,368.333 68.584 C 369.754 68.364,371.817 68.102,372.917 68.003 C 374.017 67.903,376.154 67.641,377.667 67.419 C 379.179 67.198,381.354 66.932,382.500 66.830 C 388.640 66.280,390.833 65.456,390.833 63.701 C 390.833 62.423,388.744 54.763,388.038 53.454 C 387.118 51.747,384.717 51.468,378.917 52.392 C 377.450 52.625,375.162 52.901,373.833 53.005 C 372.504 53.108,370.203 53.375,368.719 53.597 C 361.863 54.622,361.917 54.675,361.917 46.826 C 361.917 38.937,361.093 39.516,372.333 39.501 C 380.781 39.489,380.388 39.793,381.171 32.669 C 381.835 26.627,382.199 26.811,369.000 26.527 C 363.070 26.399,362.775 26.349,362.269 25.370 C 361.407 23.703,361.935 21.396,363.319 20.779 C 363.623 20.644,366.871 20.562,374.333 20.502 C 388.186 20.390,386.917 21.055,386.917 13.917 C 386.917 8.560,386.811 8.202,385.053 7.575 C 384.270 7.296,345.317 7.248,344.353 7.525 M106.417 7.883 C 108.378 8.765,109.515 10.977,110.076 14.999 C 110.457 17.728,110.465 60.664,110.085 61.943 C 109.610 63.541,108.544 64.622,106.714 65.361 L 105.750 65.750 86.263 65.795 C 64.589 65.845,65.786 65.903,64.042 64.720 C 62.990 64.007,61.962 62.541,61.644 61.301 C 61.232 59.697,61.315 11.621,61.731 10.783 C 62.244 9.752,63.071 9.444,67.833 8.509 C 71.515 7.786,71.774 7.811,73.095 9.029 C 74.065 9.923,74.683 9.965,75.706 9.207 C 77.033 8.224,77.822 7.807,78.620 7.669 C 80.406 7.361,105.687 7.555,106.417 7.883 M235.076 7.903 C 236.327 8.426,236.250 7.444,236.250 22.827 C 236.250 30.393,236.315 36.771,236.393 37.000 C 236.805 38.197,238.056 38.859,240.333 39.085 C 243.482 39.398,243.643 39.713,243.004 44.302 C 242.532 47.700,242.341 47.963,240.020 48.403 C 237.198 48.938,236.018 50.581,237.196 52.333 C 238.059 53.618,237.719 53.580,248.667 53.607 C 260.133 53.635,258.756 53.574,259.258 54.076 C 260.112 54.930,259.337 64.218,258.320 65.309 C 257.734 65.938,257.838 65.935,239.111 65.841 L 220.972 65.750 220.486 65.206 C 219.857 64.502,219.861 64.285,220.579 59.504 C 221.240 55.108,221.438 54.528,222.623 53.537 C 224.589 51.891,224.387 49.980,222.103 48.619 C 220.222 47.499,220.152 47.250,220.581 43.186 C 220.886 40.300,221.088 39.828,222.445 38.835 C 224.470 37.354,224.326 38.532,224.474 22.250 C 224.606 7.670,224.531 8.468,225.825 7.930 C 226.670 7.578,234.247 7.556,235.076 7.903 M54.661 8.256 C 55.631 8.826,55.613 8.545,55.707 24.583 C 55.794 39.527,55.756 40.883,55.157 43.858 C 53.484 52.179,46.844 60.971,39.988 63.942 C 36.074 65.638,34.088 65.833,20.774 65.833 C 7.066 65.833,8.417 66.425,8.417 60.417 C 8.417 55.379,8.460 55.284,11.016 54.747 C 13.447 54.235,13.730 53.748,12.718 51.817 L 12.083 50.605 12.000 36.261 C 11.902 19.399,12.107 20.804,9.557 19.524 C 7.962 18.723,7.933 18.499,8.768 13.417 C 9.457 9.221,9.675 8.632,10.718 8.156 C 11.846 7.642,53.778 7.737,54.661 8.256 M155.705 8.437 C 160.866 10.284,164.267 14.659,165.181 20.625 C 165.642 23.640,165.233 23.913,160.250 23.907 C 156.100 23.902,156.024 23.877,154.360 22.010 C 152.245 19.636,151.627 19.507,142.344 19.503 C 132.253 19.499,132.469 19.393,130.104 25.526 C 126.225 35.584,126.472 40.726,131.148 47.333 C 134.720 52.380,138.521 54.368,144.667 54.402 C 149.525 54.429,152.162 53.362,155.890 49.858 C 158.711 47.207,158.772 47.227,162.704 52.110 C 165.546 55.639,165.533 55.807,162.186 58.703 C 155.437 64.543,152.110 65.833,143.799 65.833 C 133.610 65.833,127.935 63.006,122.270 55.104 C 117.871 48.969,116.348 42.417,117.172 33.167 C 117.717 27.043,118.574 25.108,121.383 23.655 C 124.049 22.277,124.878 21.512,124.531 20.751 C 124.196 20.016,123.602 19.838,120.015 19.395 C 118.915 19.260,118.333 18.611,118.333 17.520 C 118.333 15.570,120.126 9.901,121.064 8.883 C 122.066 7.796,121.309 7.839,138.583 7.880 L 154.250 7.917 155.705 8.437 M278.151 8.075 C 279.097 8.564,279.055 7.093,278.964 36.726 C 278.887 62.164,278.861 64.142,278.594 64.704 C 278.092 65.761,277.742 65.833,273.094 65.833 C 268.514 65.833,268.086 65.754,267.503 64.802 C 267.003 63.984,267.050 10.712,267.551 9.973 C 268.026 9.274,268.866 8.986,271.653 8.568 C 273.082 8.354,274.587 8.109,275.000 8.024 C 276.172 7.783,277.632 7.807,278.151 8.075 M384.578 8.737 C 385.661 9.190,385.750 9.586,385.750 14.007 C 385.750 20.001,387.084 19.394,373.669 19.500 L 363.074 19.583 362.250 20.007 C 361.074 20.613,360.778 21.205,360.694 23.123 C 360.509 27.365,360.823 27.522,369.833 27.680 C 381.271 27.880,380.568 27.465,379.820 33.583 C 379.190 38.740,379.864 38.390,370.333 38.500 C 359.962 38.619,360.773 37.946,360.697 46.500 C 360.634 53.617,360.697 53.951,362.250 54.808 C 362.989 55.215,366.083 55.134,369.667 54.612 C 371.271 54.379,373.596 54.102,374.833 53.997 C 376.071 53.892,378.321 53.625,379.833 53.403 C 384.332 52.745,386.218 52.869,386.866 53.866 C 387.841 55.368,389.748 63.224,389.328 64.009 C 388.943 64.730,386.023 65.390,381.250 65.836 C 380.150 65.939,378.012 66.200,376.500 66.415 C 374.988 66.631,372.887 66.893,371.833 66.998 C 370.779 67.103,368.717 67.365,367.250 67.579 C 365.783 67.794,363.983 68.019,363.250 68.079 C 362.517 68.140,360.717 68.368,359.250 68.586 C 357.783 68.804,355.758 69.062,354.750 69.159 C 353.742 69.256,351.696 69.500,350.204 69.702 C 345.722 70.309,345.713 70.300,345.076 64.828 C 344.391 58.944,344.417 58.835,346.750 57.742 C 349.615 56.400,349.552 56.594,349.631 48.820 C 349.720 40.014,349.533 39.384,346.662 38.819 C 344.359 38.366,344.174 37.908,344.656 33.856 C 345.125 29.920,345.224 29.715,347.107 28.797 C 348.793 27.975,349.219 27.482,349.494 26.031 C 349.871 24.048,349.994 23.783,350.990 22.826 C 353.196 20.706,352.632 20.113,348.119 19.806 C 343.487 19.491,343.583 19.614,343.583 14.083 C 343.583 9.607,343.646 9.302,344.667 8.792 C 345.475 8.388,383.617 8.336,384.578 8.737 M74.773 19.244 C 72.652 20.000,72.750 19.149,72.750 36.750 L 72.750 51.917 73.167 52.750 C 73.474 53.365,73.779 53.692,74.333 54.000 L 75.083 54.417 85.750 54.417 L 96.417 54.417 97.109 54.046 C 98.019 53.560,98.436 53.004,98.654 51.985 C 98.964 50.540,98.897 22.276,98.582 21.213 C 98.288 20.226,97.506 19.443,96.546 19.177 C 95.517 18.891,75.590 18.953,74.773 19.244 M25.335 19.823 C 23.061 20.618,23.149 19.876,23.204 37.839 L 23.250 52.750 23.620 53.442 C 25.671 57.277,36.247 54.305,40.501 48.699 C 43.127 45.237,44.148 39.099,43.848 28.583 C 43.570 18.833,44.427 19.600,33.750 19.543 C 26.724 19.505,26.192 19.523,25.335 19.823 M96.262 20.492 C 97.665 21.105,97.583 20.102,97.583 36.750 C 97.583 53.119,97.663 51.992,96.446 52.899 C 95.713 53.446,75.800 53.452,75.054 52.906 C 73.854 52.029,73.917 52.918,73.917 36.745 C 73.917 20.525,73.871 21.170,75.072 20.544 C 76.199 19.957,94.934 19.911,96.262 20.492 M40.082 20.666 C 42.192 21.011,42.369 21.398,42.523 26.000 C 42.780 33.703,42.289 41.935,41.420 44.491 C 39.651 49.692,33.714 53.874,28.055 53.905 C 24.190 53.927,24.501 55.379,24.500 37.286 C 24.500 19.968,24.360 21.056,26.644 20.670 C 27.780 20.478,38.915 20.474,40.082 20.666 " stroke="none" fill="#6e747c" fill-rule="evenodd"></path></g></svg>