<?xml version="1.0" encoding="UTF-8"?>
<svg version="1.1" xmlns="http://www.w3.org/2000/svg" width="626" height="155">
<path d="M0 0 C206.58 0 413.16 0 626 0 C626 51.15 626 102.3 626 155 C419.42 155 212.84 155 0 155 C0 103.85 0 52.7 0 0 Z " fill="#010101" transform="translate(0,0)"/>
<path d="M0 0 C59.27429806 0 59.27429806 0 75.90234375 15.80859375 C86.84643134 27.32742555 90.5140134 41.8715063 90.421875 57.3046875 C90.00304354 72.05196349 85.83577705 88.405018 75 99 C52.66609553 117.71118084 29.67770512 115 0 115 C0 77.05 0 39.1 0 0 Z " fill="#F1F1E8" transform="translate(17,18)"/>
<path d="M0 0 C0.93626221 0.00974854 1.87252441 0.01949707 2.8371582 0.02954102 C13.80839938 0.3121815 20.4241814 3.24715314 28.41796875 10.86328125 C37.04393566 20.64729535 38.45047892 30.90919821 37.86669922 43.46191406 C36.99410542 53.08184461 31.61906406 60.50593594 25 67.125 C23.92270916 67.93296813 22.81474879 68.70083303 21.6875 69.4375 C20.62015625 70.13746094 20.62015625 70.13746094 19.53125 70.8515625 C13.42852704 74.22312858 7.90444884 74.9022082 1.0625 74.9375 C-0.11832153 74.94680542 -0.11832153 74.94680542 -1.32299805 74.95629883 C-11.4754029 74.73925399 -19.68772997 71.10105541 -27.3125 64.4375 C-34.90889215 55.96272418 -38.10785756 44.90262636 -37.69140625 33.671875 C-36.46808094 23.22946928 -32.36557856 14.3228165 -24.10546875 7.65625 C-16.1038228 2.09462896 -9.68903175 -0.1114675 0 0 Z " fill="#F3F3EA" transform="translate(156.3125,59.5625)"/>
<path d="M0 0 C32.76572668 0 32.76572668 0 42 9 C52.95273363 21.09869369 53.891424 33.6498803 53.22216797 49.41210938 C52.3938194 59.06100479 48.05343583 68.3429782 41 75 C28.20648635 84.67875297 16.64189607 83 0 83 C0 55.61 0 28.22 0 0 Z " fill="#000000" transform="translate(35,34)"/>
<path d="M0 0 C7.26460089 5.60148081 10.75425862 11.98001573 12.45703125 20.89453125 C12.45703125 26.83453125 12.45703125 32.77453125 12.45703125 38.89453125 C-4.70296875 38.89453125 -21.86296875 38.89453125 -39.54296875 38.89453125 C-35.57227312 49.12449049 -35.57227312 49.12449049 -27.80078125 55 C-20.27170072 57.98297481 -9.95309887 56.29623782 -2.59375 53.55078125 C-0.54296875 52.89453125 -0.54296875 52.89453125 3.45703125 52.89453125 C4.13057624 54.32882126 4.79562826 55.76710182 5.45703125 57.20703125 C5.82828125 58.00753906 6.19953125 58.80804688 6.58203125 59.6328125 C7.45703125 61.89453125 7.45703125 61.89453125 7.45703125 64.89453125 C5.89682258 65.5458805 4.33374546 66.19036089 2.76953125 66.83203125 C1.46435547 67.37150391 1.46435547 67.37150391 0.1328125 67.921875 C-5.95974133 70.13654055 -11.88497825 70.1103553 -18.29296875 70.14453125 C-19.24429688 70.16515625 -20.195625 70.18578125 -21.17578125 70.20703125 C-31.92790748 70.26594701 -40.51493667 67.20017675 -48.54296875 59.89453125 C-55.02588562 51.44668906 -56.90390575 43.53786996 -56.91796875 33.08203125 C-56.94246094 32.13521484 -56.96695313 31.18839844 -56.9921875 30.21289062 C-57.0313702 20.72414577 -53.75588977 12.2141105 -47.015625 5.3359375 C-34.78520555 -5.78514686 -14.43530432 -8.62080412 0 0 Z " fill="#F3F3EA" transform="translate(596.54296875,64.10546875)"/>
<path d="M0 0 C5.61 0 11.22 0 17 0 C17 33 17 66 17 100 C27.89 100 38.78 100 50 100 C50 104.95 50 109.9 50 115 C33.5 115 17 115 0 115 C0 77.05 0 39.1 0 0 Z " fill="#F6F6ED" transform="translate(357,18)"/>
<path d="M0 0 C0.78101074 0.00128906 1.56202148 0.00257812 2.36669922 0.00390625 C8.62889612 0.10739226 14.29214002 1.1309571 20.1875 3.3125 C21.25278748 6.04269786 21.26748186 7.10548812 20.19140625 9.890625 C19.71574219 10.77234375 19.24007812 11.6540625 18.75 12.5625 C18.27691406 13.45453125 17.80382812 14.3465625 17.31640625 15.265625 C16.94386719 15.94109375 16.57132812 16.6165625 16.1875 17.3125 C14.99125 16.8175 13.795 16.3225 12.5625 15.8125 C6.29794689 13.72099578 -0.2822085 13.48299846 -6.8125 14.3125 C-9.18741397 15.70320395 -9.18741397 15.70320395 -10.8125 17.3125 C-11.11392916 20.65207308 -11.11392916 20.65207308 -9.8125 24.3125 C-6.76099803 26.59953383 -3.34007985 27.90800062 0.1875 29.3125 C20.96876821 37.63039103 20.96876821 37.63039103 24.59375 45.19921875 C26.34120549 51.41878073 26.38214544 58.03212612 23.1875 63.75 C18.65574507 69.90755402 12.48364456 72.62192992 5.1875 74.3125 C1.97436109 74.63163 -1.20987556 74.69274065 -4.4375 74.6875 C-5.31325684 74.68806396 -6.18901367 74.68862793 -7.09130859 74.68920898 C-15.22861338 74.5524664 -22.47253824 72.98248088 -29.8125 69.3125 C-29.15830901 64.24251981 -26.9578591 59.89259223 -24.8125 55.3125 C-24.173125 55.580625 -23.53375 55.84875 -22.875 56.125 C-21.864375 56.516875 -20.85375 56.90875 -19.8125 57.3125 C-19.2040625 57.57675781 -18.595625 57.84101562 -17.96875 58.11328125 C-10.82336513 60.92611 -1.80946606 62.04950138 5.55859375 59.48828125 C7.54366279 58.32458791 7.54366279 58.32458791 7.9375 55.1875 C8.02 54.23875 8.1025 53.29 8.1875 52.3125 C4.42296916 48.97103072 0.67728189 47.13011739 -4 45.4375 C-14.0037656 41.6069983 -22.55830699 37.60540229 -28.125 28.0625 C-29.62124826 22.07750695 -29.89847632 16.46840624 -26.75 11 C-20.10432339 1.75952269 -10.8519459 -0.07485714 0 0 Z " fill="#F3F3EA" transform="translate(312.8125,59.6875)"/>
<path d="M0 0 C0.82048828 -0.00773437 1.64097656 -0.01546875 2.48632812 -0.0234375 C9.76050096 -0.00021588 16.29193398 1.36822103 22.5625 5.25 C23.41015625 6.9921875 23.41015625 6.9921875 23.5625 9.25 C22.34765625 12.046875 22.34765625 12.046875 20.625 15 C20.05910156 15.98484375 19.49320312 16.9696875 18.91015625 17.984375 C18.46542969 18.73203125 18.02070313 19.4796875 17.5625 20.25 C15.18990859 19.07139087 12.84070352 17.86700595 10.5 16.625 C4.63102811 14.14586532 -1.84981316 14.38743772 -7.8125 16.375 C-12.56467754 19.76941253 -15.65085292 23.70742374 -17.4375 29.25 C-18.14898041 36.9007244 -18.46249341 45.42987228 -14.4375 52.25 C-10.94416343 56.06679366 -7.55503409 59.1138915 -2.27734375 59.453125 C5.26803608 59.54376019 11.51078332 59.21914387 18.5625 56.25 C20.5425 60.21 22.5225 64.17 24.5625 68.25 C13.37488798 74.66642454 1.19986261 76.9232639 -11.67578125 73.6875 C-20.7593984 70.44209116 -27.68144292 64.87062034 -31.92578125 56.21484375 C-36.62728223 45.31530768 -38.71042447 33.96322694 -34.875 22.375 C-30.32334416 11.70160495 -23.30972349 5.56402512 -12.71875 1.10546875 C-8.42177588 -0.01481379 -4.42050299 -0.04147462 0 0 Z " fill="#F2F2E9" transform="translate(244.4375,59.75)"/>
<path d="M0 0 C6.27 0 12.54 0 19 0 C24.81957056 10.71539976 30.14418754 21.47782475 35.0546875 32.63671875 C36.60120636 36.14624322 38.24699475 39.58770362 40 43 C40.29132813 42.33170166 40.58265625 41.66340332 40.8828125 40.97485352 C50.72793101 18.41892851 50.72793101 18.41892851 55.625 8 C55.955 7.29560791 56.285 6.59121582 56.625 5.86547852 C58.87020866 1.12979134 58.87020866 1.12979134 60 0 C61.34267413 -0.08631874 62.68974322 -0.10706473 64.03515625 -0.09765625 C64.84404297 -0.09443359 65.65292969 -0.09121094 66.48632812 -0.08789062 C67.33646484 -0.07951172 68.18660156 -0.07113281 69.0625 -0.0625 C69.91650391 -0.05798828 70.77050781 -0.05347656 71.65039062 -0.04882812 C73.76695663 -0.03700373 75.88348685 -0.01906769 78 0 C77.3999967 4.94518847 75.21428335 8.75484008 72.875 13.0625 C72.44123047 13.87396484 72.00746094 14.68542969 71.56054688 15.52148438 C70.58721216 17.34026058 69.61078856 19.15738598 68.63183594 20.97314453 C66.54695311 24.84034641 64.47295634 28.71334039 62.39982605 32.58685303 C60.78853763 35.5968437 59.17470938 38.60540778 57.55493164 41.61083984 C54.63225613 47.03947882 51.73710461 52.47705823 48.95703125 57.98046875 C48.50457031 58.86927734 48.05210937 59.75808594 47.5859375 60.67382812 C46.76041047 62.3033577 45.94587833 63.93852265 45.14453125 65.58007812 C42.46629992 70.84567222 42.46629992 70.84567222 39.87182617 71.7043457 C39.25412354 71.80191162 38.6364209 71.89947754 38 72 C33.38337651 64.62289898 29.33597124 57.00109126 25.39367676 49.25177002 C19.709095 38.08117518 13.91902836 26.98409237 7.80615234 16.04003906 C4.89837526 10.79953427 2.36272447 5.5093435 0 0 Z " fill="#F2F2E9" transform="translate(454,61)"/>
<path d="M0 0 C5.3719542 2.1047119 8.83339221 5.07177372 11.5 10.1875 C14.85294593 18.05760919 15.32930046 26.23099785 12.4375 34.375 C9.70009727 40.43430425 5.1037657 44.44146663 -1 47 C-7.34185556 48.02461952 -12.10285052 47.16950103 -17.31640625 43.4140625 C-23.01581447 38.62708854 -25.61667882 32.95790662 -26.32421875 25.65234375 C-26.54389945 18.5695349 -26.45648576 12.71703459 -22 7 C-21.48695313 6.32839844 -20.97390625 5.65679687 -20.4453125 4.96484375 C-14.68076531 -1.25740354 -8.05641489 -1.44555101 0 0 Z " fill="#030303" transform="translate(163,74)"/>
<path d="M0 0 C5.61 0 11.22 0 17 0 C17 23.76 17 47.52 17 72 C11.39 72 5.78 72 0 72 C0 48.24 0 24.48 0 0 Z " fill="#F6F6ED" transform="translate(425,61)"/>
<path d="M0 0 C4.11129485 1.58540128 6.70170939 3.65598902 8.79296875 7.50390625 C8.79296875 10.47390625 8.79296875 13.44390625 8.79296875 16.50390625 C-2.75703125 16.50390625 -14.30703125 16.50390625 -26.20703125 16.50390625 C-25.09862936 9.85349492 -23.60061737 6.61254164 -18.58203125 2.19140625 C-13.15724009 -1.66305063 -6.40525516 -1.43976532 0 0 Z " fill="#020202" transform="translate(583.20703125,74.49609375)"/>
<path d="M0 0 C3.06759541 1.50008786 5.11903586 3.13766327 7 6 C7.81415451 9.17854842 7.74685572 11.8126315 7 15 C4.92987161 18.47485838 2.88365688 20.74352278 -1 22 C-4.99090581 22.52055293 -6.69523363 22.16996586 -10.25 20.1875 C-12.97831001 18.0172534 -14.71330025 16.4472824 -15.40625 12.94921875 C-15.58289879 8.68756668 -15.41619746 5.75759123 -12.5625 2.4375 C-8.68806712 -0.82469938 -4.83746269 -1.23028895 0 0 Z " fill="#F2F2E9" transform="translate(437,26)"/>
</svg>
